<?xml version="1.0" encoding="utf-8"?>
<!-- Generator: Adobe Illustrator 27.5.0, SVG Export Plug-In . SVG Version: 6.00 Build 0)  -->
<svg version="1.1" id="Capa_1" xmlns="http://www.w3.org/2000/svg" xmlns:xlink="http://www.w3.org/1999/xlink" x="0px" y="0px"
	 viewBox="0 0 2122 2122" style="enable-background:new 0 0 2122 2122;" xml:space="preserve">
<path style="fill:#E6E6E6;" d="M1892.042,1813.176c-47.864-52.044-110.184,140.557-239.317,78.066
	c-150.129-72.651-31.899-203.919-151.568-304.828c-83.761-70.631-145.6-27.717-209.531-99.898
	c-158.087-178.485,121.915-487.506,142.299-732.12c14.436-173.234-24.748-307.284-180.062-361.272
	c-68.701-23.881-91.738-100.37-59.829-130.109c44.594-41.562,143.59-14.87,135.613-55.761
	c-10.868-55.708-625.075-187.11-828.495,444.85c-31.141,96.744-51.521,273.25-47.013,464.228
	c1.611,68.269,6.407,138.365,15.035,207.356c27.648,221.084,94.62,430.579,222.294,530.38
	c247.294,193.306,462.679-92.935,658.122-52.044c114.526,23.962,123.647,92.935,267.237,144.979
	C1805.399,2015.35,1939.905,1865.22,1892.042,1813.176z"/>
<path style="fill:#C7D0D6;" d="M454.139,1116.332c-39.394,43.255-94.349,72.864-151.472,87.939
	c-17.241,4.55-35.022,8.029-50.79,16.357c-15.767,8.328-29.61,22.672-31.97,40.347c-2.736,20.5,10.406,39.976,26.105,53.441
	c41.864,35.907,102.565,42.491,156.634,31.609c23.001-4.63,45.359-12.23,66.527-22.336
	C460.546,1254.697,455.75,1184.601,454.139,1116.332z"/>
<path style="fill:#FFFFFF;" d="M1157.697,534.353c-0.663,1.318-2.423,2.195-3.812,1.293c-4.011-2.606-8.412-4.165-12.443-6.626
	c-4.058-2.477-8.071-5.032-12.058-7.619c-7.59-4.923-15.519-9.324-23.71-13.164c-8.222-3.855-16.751-7.021-25.456-9.604
	c-4.59-1.362-9.23-2.555-13.908-3.575c-5.447-1.187-9.209-2.147-13.65-5.832c-5.301-4.399-1.983-12.966,3.881-14.7
	c9.802-2.898,21.813,2.983,30.974,6.628c9.133,3.634,18.049,7.787,26.599,12.642c8.62,4.896,16.813,10.464,24.64,16.542
	c3.935,3.056,7.873,6.531,11.107,10.343c2.81,3.311,4.908,7.412,7.457,10.981c-8.357-57.908-26.234-113.674-58.41-162.302
	c-50.754-76.705-184.988-163.549-277.481-105.871c-40.106,25.01-77.662,69.861-108.947,104.644
	c-41.241,45.852-76.255,97.148-105.291,151.51c-32.804,61.419-58.038,126.83-76.127,194.04
	c-45.969,170.798-47.895,350.518-35.152,526.935c7.251,100.398,19.331,201.292,51.027,296.831
	c31.697,95.54,84.269,186.122,161.851,250.259c39.163,32.375,87.011,58.325,137.807,57.056
	c52.153-1.303,99.964-31.333,135.845-69.203c26.967-28.462,49.347-63.29,53.988-102.223c4.124-34.597-6.055-69.369-19.709-101.424
	c-33.34-78.276-87.144-145.73-132.613-217.641c-17.979-28.435-35.086-58.781-38.683-92.23
	c-5.834-54.24,25.111-106.206,63.567-144.898c6.945-6.988,14.216-13.625,21.595-20.144c-0.375-0.011-0.739,0.006-1.119-0.016
	c-17.047-1.025-31.021-13.39-42.327-25.056c-10.256-10.584-20.43-24.359-35.153-28.842c-22.972-6.996-39.787,18.698-53.711,32.464
	c-7.995,7.905-17.189,15.491-28.256,18.482c-14.489,3.916-28.411-1.47-39.728-10.57c-12.573-10.109-20.995-25.207-34.907-33.655
	c-10.861-6.596-28.567-6.819-34.507,6.542c-1.128,2.537-5.344,1.246-5.187-1.405c0.924-15.621,16.67-23.369,30.894-22.127
	c18.519,1.617,31.248,17.547,43.376,29.843c10.023,10.163,23.129,20.413,38.12,15.001c10.134-3.659,17.97-12.441,25.211-20.029
	c16.999-17.814,37.526-38.786,64.633-29.218c16.153,5.702,27.573,18.811,39.009,30.884c9.944,10.5,26.159,24.423,41.836,18.364
	c13.944-5.39,21.094-22.607,30.562-33.149c10.623-11.829,25.796-21.742,41.386-14.642c7.352-6.563,14.588-13.25,21.484-20.304
	c3.623-3.706,7.122-7.504,10.566-11.344c-68.109-8.725-121.406-86.555-121.406-181.313c0-100.6,60.066-182.154,134.161-182.154
	c2.074,0,4.134,0.082,6.184,0.212c0.962,0.06,1.915,0.161,2.872,0.247c0.997,0.093,1.994,0.186,2.984,0.308
	c1.272,0.154,2.535,0.337,3.796,0.539c0.567,0.092,1.132,0.191,1.697,0.292c1.487,0.264,2.968,0.545,4.44,0.874
	c0.005,0.001,0.01,0.002,0.014,0.003c0,0,0,0-0.001,0c32.662,7.314,61.357,30.606,81.541,63.814
	c1.039-10.198,1.901-20.392,2.56-30.558C1164.529,625.411,1163.942,579.263,1157.697,534.353z"/>
<path style="fill:#3C0F38;" d="M1077.508,637.232c-50.049,26.448-85.536,92.459-85.536,169.765
	c0,90.429,48.544,165.428,112.174,179.677c-1.837,0.97-3.694,1.884-5.568,2.747c28.848-13.269,53.279-39.478,69.559-73.563
	c-7.798,5.643-16.423,8.857-25.528,8.857c-34.448,0-62.373-44.937-62.373-100.37c0-55.433,27.925-100.37,62.373-100.37
	c12.94,0,24.957,6.344,34.921,17.2c-4.887-14.489-11.099-27.982-18.481-40.128C1138.865,667.838,1110.17,644.546,1077.508,637.232z"
	/>
<path style="fill:#1A061E;" d="M991.972,806.997c0-77.306,35.487-143.317,85.536-169.765c0,0,0,0,0.001,0
	c-0.005-0.001-0.01-0.002-0.014-0.003c-1.471-0.329-2.954-0.608-4.44-0.874c-0.565-0.101-1.13-0.201-1.697-0.292
	c-1.26-0.204-2.525-0.382-3.796-0.539c-0.99-0.123-1.987-0.215-2.984-0.308c-0.956-0.089-1.91-0.185-2.872-0.247
	c-2.05-0.13-4.11-0.212-6.184-0.212c-74.095,0-134.161,81.553-134.161,182.154c0,94.758,53.297,172.588,121.406,181.313
	c4.2,0.538,8.451,0.841,12.754,0.841c2.223,0,4.431-0.081,6.626-0.228c0.951-0.063,1.891-0.183,2.837-0.273
	c1.213-0.116,2.429-0.216,3.633-0.375c1.251-0.166,2.49-0.388,3.731-0.601c0.861-0.148,1.727-0.276,2.583-0.445
	c1.451-0.287,2.889-0.627,4.324-0.977c0.606-0.148,1.214-0.281,1.817-0.44c1.606-0.424,3.199-0.894,4.784-1.394
	c0.401-0.127,0.804-0.245,1.203-0.377c1.723-0.566,3.432-1.177,5.128-1.833c0.236-0.091,0.472-0.18,0.707-0.272
	c1.814-0.715,3.611-1.476,5.392-2.29c0.098-0.045,0.196-0.089,0.293-0.135c1.874-0.864,3.731-1.777,5.568-2.747
	C1040.517,972.424,991.972,897.426,991.972,806.997z"/>
<path style="fill:#3C0F38;" d="M620.089,799.562c0,90.429,48.544,165.427,112.174,179.677c-1.836,0.97-3.692,1.883-5.566,2.746
	c28.847-13.27,53.276-39.479,69.557-73.563c-7.799,5.644-16.423,8.857-25.529,8.857c-34.448,0-62.373-44.937-62.373-100.37
	c0-55.433,27.925-100.37,62.373-100.37c12.94,0,24.957,6.344,34.922,17.2c-18.248-54.101-55.414-93.952-100.023-103.941
	C655.576,656.245,620.089,722.256,620.089,799.562z"/>
<path style="fill:#1A061E;" d="M690.264,991.401c0.951-0.063,1.891-0.184,2.837-0.273c1.213-0.116,2.429-0.216,3.633-0.375
	c1.252-0.166,2.492-0.389,3.733-0.601c0.86-0.148,1.724-0.276,2.579-0.445c1.452-0.288,2.891-0.627,4.328-0.977
	c0.604-0.148,1.212-0.281,1.814-0.44c1.606-0.423,3.199-0.894,4.784-1.393c0.401-0.127,0.804-0.245,1.203-0.377
	c1.721-0.566,3.429-1.177,5.124-1.832c0.237-0.092,0.476-0.182,0.713-0.275c1.811-0.714,3.608-1.475,5.387-2.288
	c0.099-0.045,0.198-0.091,0.297-0.137c1.873-0.863,3.73-1.777,5.566-2.746c-63.631-14.25-112.174-89.248-112.174-179.677
	c0-77.306,35.486-143.317,85.535-169.764c0,0,0-0.001,0.001-0.001c-0.005-0.001-0.009-0.002-0.014-0.003
	c-1.471-0.33-2.955-0.608-4.441-0.874c-0.564-0.101-1.13-0.201-1.696-0.292c-1.26-0.204-2.526-0.382-3.796-0.539
	c-0.991-0.123-1.988-0.215-2.985-0.308c-0.956-0.089-1.91-0.186-2.871-0.247c-2.05-0.131-4.109-0.213-6.184-0.213
	c-74.095,0-134.161,81.553-134.161,182.153s60.066,182.154,134.161,182.154C685.861,991.628,688.069,991.547,690.264,991.401z"/>
<path style="fill:#1A061E;" d="M969.332,1044.512c-9.468,10.542-16.617,27.759-30.562,33.149
	c-15.677,6.06-31.891-7.864-41.836-18.364c-11.436-12.073-22.856-25.182-39.009-30.884c-27.107-9.568-47.634,11.404-64.633,29.218
	c-7.241,7.588-15.076,16.37-25.211,20.029c-14.99,5.411-28.097-4.839-38.12-15.001c-12.127-12.296-24.857-28.226-43.376-29.843
	c-14.224-1.242-29.97,6.507-30.894,22.127c-0.157,2.651,4.059,3.942,5.187,1.405c5.94-13.361,23.646-13.138,34.507-6.542
	c13.912,8.448,22.334,23.546,34.907,33.655c11.317,9.1,25.239,14.486,39.728,10.57c11.067-2.991,20.261-10.578,28.256-18.482
	c13.923-13.766,30.739-39.46,53.711-32.464c14.723,4.484,24.897,18.258,35.153,28.842c11.306,11.667,25.28,24.031,42.327,25.056
	c0.38,0.023,0.744,0.005,1.119,0.016c17.729,0.534,30.661-11.654,40.585-25.095c5.114-6.926,10.119-15.564,16.464-22.233
	c2.276-2.391,4.728-4.518,7.42-6.227c4.323-2.746,9.256-4.417,15.11-4.252c4.478,0.127,6.28-6.367,2.304-8.506
	c-0.585-0.314-1.168-0.552-1.752-0.818C995.128,1022.771,979.955,1032.683,969.332,1044.512z"/>
<path style="fill:#1A061E;" d="M1138.755,510.338c-7.827-6.079-16.02-11.646-24.64-16.542c-8.55-4.855-17.466-9.009-26.599-12.642
	c-9.16-3.645-21.172-9.527-30.974-6.628c-5.864,1.734-9.182,10.3-3.881,14.7c4.44,3.685,8.203,4.645,13.65,5.832
	c4.678,1.02,9.318,2.213,13.908,3.575c8.704,2.583,17.233,5.749,25.456,9.604c8.191,3.84,16.12,8.241,23.71,13.164
	c3.987,2.587,8,5.142,12.058,7.619c4.031,2.461,8.432,4.02,12.443,6.626c1.389,0.902,3.149,0.025,3.812-1.293
	c0.366-0.728,0.41-1.586-0.156-2.363c-0.077-0.106-0.146-0.221-0.222-0.328c-2.548-3.569-4.647-7.67-7.457-10.981
	C1146.628,516.869,1142.691,513.394,1138.755,510.338z"/>
<path style="fill:#1A061E;" d="M622.6,530.091c15.171-8.454,32.212-15.338,48.963-19.929c8.141-2.232,16.47-3.979,24.865-4.908
	c9.252-1.024,18.903-0.052,28.011-1.675c9.825-1.751,9.727-17.918,0-19.753c-9.806-1.849-20.911,0.302-30.655,1.894
	c-9.486,1.55-18.843,3.878-27.953,6.942c-8.971,3.016-17.888,6.646-26.274,11.046c-8.618,4.522-16.518,11.077-23.974,17.291
	C610.408,525.313,617.027,533.196,622.6,530.091z"/>
<path style="fill:#1A061E;" d="M1224.853,1229.025c-24.154,8.312-45.659,23.406-68.194,35.231
	c-23.525,12.345-47.55,23.965-72.832,32.266c-44.312,14.547-92.833,18.831-137.788,4.458c-21.3-6.81-42.393-18.053-58.022-34.285
	c-7.746-8.046-14.812-18.464-14.886-30.047c-0.071-11.22,6.758-20.915,15.29-27.648c18.887-14.903,45.167-17.349,67.292-25.085
	c20.871-7.298,40.934-16.97,59.632-28.766c42.137-26.586,75.958-64.32,98.292-108.772l-0.192-0.113
	c-25.724,40.061-61.473,73.581-102.295,97.938c-20.237,12.074-41.887,21.639-64.511,28.252c-24.486,7.157-51.58,9.576-71.265,27.45
	c-18.531,16.825-22.315,41.951-8.962,63.231c12.658,20.172,34.686,34.628,56.131,44.034c44.206,19.388,94.976,20.613,141.503,9.472
	c29.633-7.095,58.871-18.677,85.593-33.308c13.781-7.545,27.319-15.616,40.429-24.276c12.836-8.48,25.291-16.895,35.871-28.169
	C1226.653,1230.121,1225.955,1228.646,1224.853,1229.025z"/>
<path style="fill:#FFFFFF;" d="M1085.827,1122.298c-35.685,38.496-84.771,62.849-133.85,79.535
	c-15.126,5.143-32.434,11.537-37.78,26.592c-6.005,16.911,8.267,35.808,25.572,40.558c17.305,4.75,35.739-1.001,51.967-8.66
	c20.217-9.541,38.902-22.074,56.582-35.755c21.993-17.018,42.764-36.126,58.192-59.262c7.618-11.424,35.174-59.653,23.581-73.484
	C1114.554,1073.286,1094.743,1112.681,1085.827,1122.298z"/>
<path style="fill:#E6E6E6;" d="M348.281,1208.78c-29.231,10.063-59.593,17.54-86.918,32.001
	c-6.182,3.271-12.487,7.203-15.688,13.422c-3.201,6.219-1.859,15.26,4.459,18.258c2.526,1.198,5.417,1.285,8.212,1.323
	c36.185,0.491,73.344-3.911,105.466-20.578c17.523-9.092,58.83-38.204,57.307-61.875
	C419.303,1163.077,366.637,1202.46,348.281,1208.78z"/>
</svg>
